<svg width="240" height="78" viewBox="0 0 240 78" fill="none" xmlns="http://www.w3.org/2000/svg">
<path d="M110.194 22.646C107.916 23.979 106.776 26.833 106.776 31.208C106.776 35.5944 108.098 38.4142 110.741 39.6675C111.562 40.0549 112.65 40.2485 114.005 40.2485C115.361 40.2485 117.013 39.6846 118.961 38.5566C119.486 38.249 119.924 38.0952 120.277 38.0952C120.744 38.0952 120.978 38.4028 120.978 39.0181C120.978 39.3485 120.779 39.7928 120.38 40.3511C119.981 40.8979 119.44 41.3708 118.756 41.7695C117.15 42.7038 115.304 43.1709 113.219 43.1709H112.672C111.203 43.1709 109.818 42.8918 108.52 42.3335C106.002 41.2511 104.287 39.2061 103.375 36.1982C102.965 34.8311 102.76 33.3898 102.76 31.8745V31.3105C102.76 29.6699 103 28.0521 103.478 26.457C104.412 23.3581 106.229 21.1649 108.93 19.8774C110.365 19.2052 112.04 18.8691 113.954 18.8691C117.042 18.8691 119.024 19.604 119.901 21.0737C120.266 21.689 120.448 22.2301 120.448 22.6973C120.448 23.6885 120.101 24.1841 119.406 24.1841C119.189 24.1841 118.699 23.922 117.936 23.3979C117.173 22.8739 116.404 22.4865 115.629 22.2358C114.866 21.9738 114 21.8428 113.031 21.8428C112.063 21.8428 111.117 22.1105 110.194 22.646ZM130.104 40.8467H130.634C131.693 40.8467 132.628 40.391 133.437 39.4795C133.881 38.9782 134.103 38.0439 134.103 36.6768L134.12 36.4546V36.0273C134.12 35.1729 133.767 34.7456 133.061 34.7456H132.514L131.625 34.814L131.164 34.8652C130.115 34.8652 129.255 35.1615 128.583 35.7539C127.911 36.335 127.575 37.0299 127.575 37.8389V38.437C127.575 39.0522 127.791 39.6105 128.224 40.1118C128.668 40.6017 129.295 40.8467 130.104 40.8467ZM138.751 41.667C138.751 42.4303 137.982 42.812 136.444 42.812C136.171 42.812 135.67 42.6753 134.94 42.4019C134.223 42.117 133.767 41.9746 133.573 41.9746C133.391 41.9746 132.776 42.174 131.728 42.5728C130.679 42.9601 129.757 43.1538 128.959 43.1538H128.566C127.324 43.1538 126.253 42.7493 125.353 41.9404C124.453 41.1201 124.003 40.0036 124.003 38.5908C124.003 35.7197 125.82 33.931 129.455 33.2246C131.813 32.7575 133.032 32.5068 133.112 32.4727C133.67 32.1878 133.949 31.6751 133.949 30.9346C133.949 30.1826 133.71 29.556 133.231 29.0547C132.764 28.542 132.121 28.2856 131.3 28.2856C130.491 28.2856 129.534 28.5648 128.429 29.123C127.324 29.6699 126.566 29.9434 126.156 29.9434C125.416 29.9434 125.045 29.4364 125.045 28.4224C125.045 27.7843 125.626 27.1805 126.789 26.6108C127.962 26.0412 129.295 25.7563 130.788 25.7563H131.642C132.759 25.7563 133.75 25.9671 134.616 26.3887C135.482 26.8102 136.142 27.3799 136.598 28.0977C137.248 29.1117 137.572 31.4302 137.572 35.0532C137.572 37.104 137.612 38.38 137.692 38.8813C137.783 39.3826 137.982 39.8896 138.29 40.4023C138.598 40.9036 138.751 41.3252 138.751 41.667ZM149.176 42.9316H148.527C146.886 42.9316 145.707 42.2253 144.989 40.8125C144.397 39.6618 144.101 37.7705 144.101 35.1387C144.101 32.5068 143.958 30.701 143.673 29.7212C143.571 29.3566 143.286 28.9408 142.819 28.4736C142.352 28.0065 142.118 27.6021 142.118 27.2603V27.0381C142.118 26.7419 142.386 26.4172 142.921 26.064C143.457 25.7108 143.764 25.4601 143.844 25.312C143.935 25.1525 144.106 24.5999 144.357 23.6543C144.619 22.6973 144.887 22.0308 145.16 21.6548C145.445 21.2674 145.821 21.0737 146.288 21.0737C146.767 21.0737 147.103 21.2104 147.296 21.4839C147.501 21.7573 147.701 22.3213 147.895 23.1758C148.1 24.0303 148.322 24.6113 148.561 24.9189C148.8 25.2152 149.381 25.5285 150.304 25.8589C151.227 26.1893 151.688 26.5994 151.688 27.0894C151.688 27.5223 151.204 27.9097 150.236 28.2515C149.279 28.5933 148.675 29.0148 148.424 29.5161C147.946 30.4845 147.707 32.1992 147.707 34.6602C147.707 37.1211 147.917 38.6307 148.339 39.189C148.76 39.7358 149.444 40.0719 150.39 40.1973C151.347 40.3226 151.825 40.6815 151.825 41.2739C151.825 41.7297 151.552 42.1227 151.005 42.4531C150.469 42.7721 149.86 42.9316 149.176 42.9316ZM164.506 21.1421H164.062C163.48 21.1421 162.951 21.4155 162.472 21.9624C162.005 22.4979 161.771 23.0789 161.771 23.7056V24.4233C161.806 24.6284 161.823 24.7879 161.823 24.9019C161.823 25.4259 162.09 26.138 162.626 27.0381C163.161 27.9268 163.515 28.3711 163.686 28.3711H163.754C164.358 28.3711 164.99 27.7729 165.651 26.5767C166.118 25.7336 166.352 25.05 166.352 24.5259L166.403 23.9961V23.8936L166.386 23.791C166.386 23.1416 166.198 22.5378 165.822 21.9795C165.446 21.4212 165.007 21.1421 164.506 21.1421ZM163.156 40.6587H163.429C164.295 40.6587 165.161 40.4251 166.027 39.958C166.893 39.4909 167.326 39.0579 167.326 38.6592V38.5566L164.147 34.4209C162.837 32.7119 162.119 31.8574 161.994 31.8574H161.789C161.344 31.8574 160.672 32.4613 159.772 33.6689C159.259 34.3525 159.003 35.0304 159.003 35.7026L158.969 35.9761V36.2666L158.986 36.4033C158.986 37.5199 159.379 38.5111 160.165 39.377C160.951 40.2314 161.948 40.6587 163.156 40.6587ZM162.506 43.1025C160.558 43.1025 158.946 42.5101 157.67 41.3252C157.112 40.8125 156.65 40.1688 156.286 39.394C155.921 38.6193 155.739 37.8446 155.739 37.0698V36.5742C155.739 34.8994 156.599 33.2018 158.319 31.4814C159.265 30.5358 159.738 29.8465 159.738 29.4136C159.738 29.311 159.521 28.7129 159.088 27.6191C158.655 26.5254 158.439 25.631 158.439 24.936C158.439 23.5347 158.929 22.3156 159.909 21.2788C160.9 20.242 162.176 19.7236 163.737 19.7236H164.215C165.48 19.7236 166.517 20.1623 167.326 21.0396C168.135 21.9168 168.539 23.0049 168.539 24.3037C168.539 24.6113 168.288 25.7563 167.787 27.7388C167.297 29.7212 167.052 31.0029 167.052 31.584C167.052 32.165 167.331 32.6265 167.89 32.9683C168.459 33.2987 169.126 33.4639 169.889 33.4639C170.083 33.4639 170.311 33.3044 170.573 32.9854C171.575 31.7663 172.606 31.1567 173.666 31.1567C174.133 31.1567 174.367 31.453 174.367 32.0454C174.367 32.1593 174.076 32.8942 173.495 34.25C172.914 35.6058 172.624 36.6711 172.624 37.4458C172.624 38.2091 173.005 39.0921 173.769 40.0947C174.532 41.0859 174.914 41.6328 174.914 41.7354C174.914 42.0544 174.577 42.2139 173.905 42.2139C173.894 42.2139 173.575 42.1683 172.948 42.0771L172.589 42.0259C172.088 41.9461 171.735 41.9062 171.53 41.9062C171.325 41.9062 170.504 41.9917 169.069 42.1626C167.633 42.3335 166.397 42.5329 165.36 42.7607C164.324 42.9886 163.372 43.1025 162.506 43.1025ZM195.302 31.4473V30.2681C195.302 28.9351 195.119 27.6875 194.755 26.5254C193.673 23.0505 191.462 21.313 188.124 21.313H188.09H187.338C185.959 21.313 185.185 21.6092 185.014 22.2017C184.923 22.5093 184.877 24.1499 184.877 27.1235V33.0879L184.86 34.1646V36.8135L184.877 37.0869L184.894 37.856L184.928 38.8984C184.928 39.4567 185.111 39.8555 185.475 40.0947C185.84 40.334 186.569 40.4536 187.663 40.4536L187.919 40.4365C191.269 40.4365 193.49 38.87 194.584 35.7368C195.062 34.3468 195.302 32.917 195.302 31.4473ZM181.254 24.9702C181.243 24.7196 181.237 24.2809 181.237 23.6543C181.237 23.0163 181.089 22.3441 180.792 21.6377C180.508 20.9199 180.365 20.5155 180.365 20.4243V20.1509C180.365 19.7293 180.724 19.4559 181.442 19.3306C182.843 19.0799 184.712 18.9546 187.047 18.9546H188.261C191.77 18.9546 194.51 19.9401 196.481 21.9111C197.472 22.9023 198.224 24.1499 198.737 25.6538C199.25 27.1577 199.506 28.7471 199.506 30.4219L199.489 30.8491C199.477 32.7518 199.175 34.5007 198.583 36.0957C197.41 39.2288 195.256 41.3081 192.123 42.3335C190.79 42.7664 189.104 42.9829 187.064 42.9829H186.278C184.205 42.9829 182.598 42.8804 181.459 42.6753C180.775 42.55 180.434 42.2765 180.434 41.855C180.434 41.5929 180.565 41.1657 180.827 40.5732C181.089 39.9808 181.243 39.3428 181.288 38.6592C181.334 37.9642 181.356 35.6229 181.356 31.6353L181.339 30.832V28.4565L181.271 25.3462L181.254 24.9702ZM210.341 41.0176H210.683C211.833 41.0176 212.779 40.5106 213.52 39.4966C214.26 38.4826 214.63 37.2008 214.63 35.6514L214.665 35.2754L214.682 34.6943V33.9253C214.682 32.2277 214.334 30.832 213.639 29.7383C212.956 28.6331 212.038 28.0806 210.888 28.0806H210.546C209.418 28.0806 208.467 28.6388 207.692 29.7554C206.929 30.8719 206.547 32.353 206.547 34.1987V35.3608C206.57 35.6343 206.581 35.8223 206.581 35.9248C206.581 37.2236 206.94 38.3971 207.658 39.4453C208.375 40.4935 209.27 41.0176 210.341 41.0176ZM218.544 34.1646V34.7285C218.544 35.7425 218.379 36.785 218.048 37.856C217.376 40.0321 216.055 41.5929 214.083 42.5386C212.944 43.0854 211.816 43.3589 210.7 43.3589H210.119C209.059 43.3589 208.074 43.1424 207.162 42.7095C205.351 41.8436 204.149 40.408 203.556 38.4028C203.237 37.3433 203.078 36.2666 203.078 35.1729V34.3013C203.078 33.2303 203.243 32.1593 203.573 31.0884C204.223 28.9692 205.51 27.4539 207.436 26.5425C208.427 26.064 209.441 25.8247 210.478 25.8247H211.332C212.312 25.8247 213.28 26.0355 214.237 26.457C216.151 27.3001 217.439 28.804 218.1 30.9688C218.396 31.9258 218.544 32.991 218.544 34.1646ZM225.312 34.4551V35.1729C225.312 36.7907 225.596 38.0781 226.166 39.0352C226.747 39.9922 227.539 40.4707 228.542 40.4707H229.14C230.393 40.4707 231.333 39.9523 231.959 38.9155C232.427 38.1408 232.66 36.9844 232.66 35.4463C232.683 35.2184 232.694 35.0418 232.694 34.9165L232.729 34.0278V33.1392L232.711 32.9683L232.694 32.4556L232.66 31.7891C232.66 30.8434 232.421 30.1086 231.942 29.5845C231.464 29.0604 230.843 28.7983 230.08 28.7983H229.635C228.359 28.7983 227.317 29.311 226.508 30.3364C225.71 31.3504 225.312 32.7233 225.312 34.4551ZM231.686 50.229C230.74 50.5708 229.658 50.7417 228.439 50.7417C227.231 50.7417 226.138 50.5195 225.158 50.0752C224.178 49.6309 223.688 49.1296 223.688 48.5713C223.688 47.8535 224.229 47.4946 225.312 47.4946C225.676 47.4946 226.16 47.5459 226.764 47.6484C227.379 47.7624 227.903 47.8193 228.336 47.8193C229.738 47.8193 230.866 47.4263 231.72 46.6401C232.575 45.8654 233.002 44.7773 233.002 43.376C233.002 42.8063 232.757 42.5215 232.267 42.5215C232.187 42.5215 231.908 42.5557 231.43 42.624C230.951 42.6924 230.268 42.7266 229.379 42.7266C226.257 42.7266 224.144 41.2056 223.039 38.1636C222.606 36.9673 222.389 35.771 222.389 34.5747V34.1133C222.389 32.8714 222.594 31.7435 223.004 30.7295C224.167 27.847 226.337 26.4058 229.516 26.4058C230.302 26.4058 231.133 26.5596 232.011 26.8672C232.888 27.1748 233.577 27.3286 234.079 27.3286L234.591 27.2944C235.104 27.2944 235.526 27.4995 235.856 27.9097C236.198 28.3084 236.369 28.8895 236.369 29.6528V30.5244C236.369 30.7409 236.283 32.0055 236.112 34.3184C235.941 36.6198 235.856 38.3687 235.856 39.5649L236.027 43.5127C236.027 46.9421 234.58 49.1808 231.686 50.229Z" fill="#2F2E41"/>
<path d="M111.648 54.664C110.443 54.664 109.488 55.112 108.784 56.008C108.08 56.904 107.728 58.1947 107.728 59.88C107.728 60.6053 107.803 61.24 107.952 61.784C108.101 62.328 108.283 62.7493 108.496 63.048C108.72 63.3467 108.992 63.5813 109.312 63.752C109.824 64.04 110.421 64.184 111.104 64.184C112.16 64.184 113.216 64.0667 114.272 63.832L114.464 64.664C114.283 64.728 113.797 64.8133 113.008 64.92C112.229 65.016 111.595 65.064 111.104 65.064C110.613 65.064 110.187 65.032 109.824 64.968C109.461 64.8933 109.077 64.744 108.672 64.52C108.267 64.296 107.92 64.0027 107.632 63.64C107.355 63.2667 107.12 62.76 106.928 62.12C106.736 61.48 106.64 60.7333 106.64 59.88C106.64 57.992 107.072 56.52 107.936 55.464C108.843 54.3547 110.08 53.8 111.648 53.8C112.128 53.8 112.645 53.848 113.2 53.944C113.765 54.0293 114.165 54.1147 114.4 54.2L114.592 56.504L113.808 56.616L113.584 54.888C112.901 54.7387 112.256 54.664 111.648 54.664ZM115.944 53.8V53H118.056V64.2H119.256V65H116.024V64.2H117.016V53.8H115.944ZM119.85 57.8V57H121.962V64.2H123.162V65H119.93V64.2H120.922V57.8H119.85ZM121.418 54.856C121.205 54.856 121.04 54.792 120.922 54.664C120.805 54.5253 120.746 54.3493 120.746 54.136C120.746 53.912 120.805 53.736 120.922 53.608C121.05 53.4693 121.221 53.4 121.434 53.4C121.648 53.4 121.818 53.4693 121.946 53.608C122.085 53.736 122.154 53.9173 122.154 54.152C122.154 54.376 122.085 54.552 121.946 54.68C121.808 54.7973 121.632 54.856 121.418 54.856ZM123.784 57.8V57H125.896V57.896C126.771 57.2987 127.608 56.984 128.408 56.952C129.187 56.952 129.779 57.1067 130.184 57.416C130.366 57.5547 130.526 57.7733 130.664 58.072C130.814 58.36 130.888 58.7067 130.888 59.112V64.2H132.12V65H128.888V64.2H129.848V59.512C129.848 58.4773 129.24 57.96 128.024 57.96C127.363 57.9813 126.654 58.2 125.896 58.616V64.2H127.096V65H123.864V64.2H124.856V57.8H123.784ZM133.21 57.8V57H135.322V64.2H136.522V65H133.29V64.2H134.282V57.8H133.21ZM134.778 54.856C134.564 54.856 134.399 54.792 134.282 54.664C134.164 54.5253 134.106 54.3493 134.106 54.136C134.106 53.912 134.164 53.736 134.282 53.608C134.41 53.4693 134.58 53.4 134.794 53.4C135.007 53.4 135.178 53.4693 135.306 53.608C135.444 53.736 135.514 53.9173 135.514 54.152C135.514 54.376 135.444 54.552 135.306 54.68C135.167 54.7973 134.991 54.856 134.778 54.856ZM141.331 57.864C140.425 57.864 139.689 58.168 139.123 58.776C138.569 59.3733 138.291 60.216 138.291 61.304C138.291 63.192 139.171 64.136 140.931 64.136C141.614 64.136 142.185 64.0827 142.643 63.976C143.102 63.8587 143.353 63.784 143.395 63.752L143.619 64.504C143.374 64.664 142.969 64.7973 142.403 64.904C141.838 65.0107 141.326 65.064 140.867 65.064C140.409 65.064 139.993 65.016 139.619 64.92C139.246 64.824 138.867 64.6533 138.483 64.408C138.11 64.1627 137.811 63.7787 137.587 63.256C137.363 62.7227 137.251 62.0773 137.251 61.32C137.251 59.9227 137.609 58.8667 138.323 58.152C139.123 57.3307 140.131 56.92 141.347 56.92C141.731 56.92 142.137 56.9733 142.563 57.08C143.001 57.176 143.337 57.3307 143.571 57.544V59.64L142.787 59.752L142.707 58.072C142.27 57.9333 141.811 57.864 141.331 57.864ZM147.537 65.064C146.118 65.064 145.366 64.504 145.281 63.384C145.27 63.3093 145.265 63.2347 145.265 63.16C145.265 62.264 145.804 61.6667 146.881 61.368C147.478 61.2187 148.63 61.048 150.337 60.856V59.624C150.337 58.4613 149.729 57.88 148.513 57.88C147.638 57.8907 146.71 58.0933 145.729 58.488L145.457 57.8L145.617 57.736C146.449 57.3733 147.084 57.1547 147.521 57.08C147.958 57.0053 148.278 56.968 148.481 56.968C148.684 56.9573 148.876 56.9573 149.057 56.968C149.249 56.9787 149.494 57.0267 149.793 57.112C150.092 57.1973 150.348 57.32 150.561 57.48C150.785 57.6293 150.977 57.8587 151.137 58.168C151.297 58.4773 151.377 58.8453 151.377 59.272V64.2H152.609V65H150.497L150.337 64.392C149.377 64.84 148.444 65.064 147.537 65.064ZM147.825 64.328C148.636 64.328 149.473 64.1467 150.337 63.784V61.496C148.737 61.5493 147.702 61.656 147.233 61.816C146.87 61.912 146.614 62.088 146.465 62.344C146.316 62.5893 146.241 62.7867 146.241 62.936C146.241 63.0853 146.241 63.1867 146.241 63.24C146.273 63.624 146.438 63.9013 146.737 64.072C147.036 64.2427 147.398 64.328 147.825 64.328ZM164.287 57.8V57H167.231V57.8H166.287L163.391 65H162.431L159.759 57.8H158.671V57H162.047V57.8H160.927L162.959 63.768L165.183 57.8H164.287ZM168.541 61.416C168.541 62.3653 168.813 63.0587 169.357 63.496C169.901 63.9227 170.535 64.136 171.261 64.136C171.73 64.136 172.21 64.0933 172.701 64.008C173.202 63.912 173.533 63.8267 173.693 63.752L173.901 64.504C173.655 64.664 173.25 64.7973 172.685 64.904C172.13 65.0107 171.618 65.064 171.149 65.064C170.69 65.064 170.274 65.016 169.901 64.92C169.538 64.824 169.165 64.6533 168.781 64.408C168.397 64.1627 168.093 63.7787 167.868 63.256C167.645 62.7333 167.533 62.0933 167.533 61.336C167.533 59.928 167.895 58.8507 168.621 58.104C169.378 57.3253 170.258 56.936 171.261 56.936C172.263 56.936 173.026 57.2133 173.549 57.768C174.082 58.3227 174.349 59.1013 174.349 60.104C174.349 60.3173 174.333 60.5467 174.301 60.792H168.589C168.557 61.016 168.541 61.224 168.541 61.416ZM173.389 59.992C173.389 59.3307 173.191 58.824 172.797 58.472C172.402 58.1093 171.943 57.928 171.421 57.928C170.706 57.928 170.114 58.1467 169.645 58.584C169.175 59.0107 168.861 59.5387 168.701 60.168H173.389C173.389 60.104 173.389 60.0453 173.389 59.992ZM178.96 64.216L179.584 64.184L179.632 64.824C179.621 64.824 179.547 64.84 179.408 64.872C179.088 64.9467 178.731 64.984 178.336 64.984C177.973 64.9627 177.643 64.904 177.344 64.808C177.045 64.7013 176.768 64.488 176.512 64.168C176.256 63.8373 176.128 63.416 176.128 62.904V57.928H175.312L175.44 57.16L176.144 57.016L176.272 55.48L177.168 55.4V57H179.104V57.928H177.168V62.632C177.168 63.688 177.765 64.216 178.96 64.216ZM181.291 61.416C181.291 62.3653 181.563 63.0587 182.107 63.496C182.651 63.9227 183.285 64.136 184.011 64.136C184.48 64.136 184.96 64.0933 185.451 64.008C185.952 63.912 186.283 63.8267 186.443 63.752L186.651 64.504C186.405 64.664 186 64.7973 185.435 64.904C184.88 65.0107 184.368 65.064 183.899 65.064C183.44 65.064 183.024 65.016 182.651 64.92C182.288 64.824 181.915 64.6533 181.531 64.408C181.147 64.1627 180.843 63.7787 180.618 63.256C180.395 62.7333 180.283 62.0933 180.283 61.336C180.283 59.928 180.645 58.8507 181.371 58.104C182.128 57.3253 183.008 56.936 184.011 56.936C185.013 56.936 185.776 57.2133 186.299 57.768C186.832 58.3227 187.099 59.1013 187.099 60.104C187.099 60.3173 187.083 60.5467 187.051 60.792H181.339C181.307 61.016 181.291 61.224 181.291 61.416ZM186.139 59.992C186.139 59.3307 185.941 58.824 185.547 58.472C185.152 58.1093 184.693 57.928 184.171 57.928C183.456 57.928 182.864 58.1467 182.395 58.584C181.925 59.0107 181.611 59.5387 181.451 60.168H186.139C186.139 60.104 186.139 60.0453 186.139 59.992ZM190.24 64.2H191.568V65H188.208V64.2H189.2V57.8H188.128V57H190.24V58.936C191.082 57.6987 191.909 57.0693 192.72 57.048C192.784 57.048 192.848 57.048 192.912 57.048L193.808 57.16L193.392 58.12C193.189 58.024 192.928 57.976 192.608 57.976C191.84 57.9867 191.05 58.5413 190.24 59.64V64.2ZM194.6 57.8V57H196.712V64.2H197.912V65H194.68V64.2H195.672V57.8H194.6ZM196.168 54.856C195.955 54.856 195.79 54.792 195.672 54.664C195.555 54.5253 195.496 54.3493 195.496 54.136C195.496 53.912 195.555 53.736 195.672 53.608C195.8 53.4693 195.971 53.4 196.184 53.4C196.398 53.4 196.568 53.4693 196.696 53.608C196.835 53.736 196.904 53.9173 196.904 54.152C196.904 54.376 196.835 54.552 196.696 54.68C196.558 54.7973 196.382 54.856 196.168 54.856ZM198.534 57.8V57H200.646V57.896C201.521 57.2987 202.358 56.984 203.158 56.952C203.937 56.952 204.529 57.1067 204.934 57.416C205.116 57.5547 205.276 57.7733 205.414 58.072C205.564 58.36 205.638 58.7067 205.638 59.112V64.2H206.87V65H203.638V64.2H204.598V59.512C204.598 58.4773 203.99 57.96 202.774 57.96C202.113 57.9813 201.404 58.2 200.646 58.616V64.2H201.846V65H198.614V64.2H199.606V57.8H198.534ZM210.084 65.064C208.665 65.064 207.913 64.504 207.828 63.384C207.817 63.3093 207.812 63.2347 207.812 63.16C207.812 62.264 208.351 61.6667 209.428 61.368C210.025 61.2187 211.177 61.048 212.884 60.856V59.624C212.884 58.4613 212.276 57.88 211.06 57.88C210.185 57.8907 209.257 58.0933 208.276 58.488L208.004 57.8L208.164 57.736C208.996 57.3733 209.631 57.1547 210.068 57.08C210.505 57.0053 210.825 56.968 211.028 56.968C211.231 56.9573 211.423 56.9573 211.604 56.968C211.796 56.9787 212.041 57.0267 212.34 57.112C212.639 57.1973 212.895 57.32 213.108 57.48C213.332 57.6293 213.524 57.8587 213.684 58.168C213.844 58.4773 213.924 58.8453 213.924 59.272V64.2H215.156V65H213.044L212.884 64.392C211.924 64.84 210.991 65.064 210.084 65.064ZM210.372 64.328C211.183 64.328 212.02 64.1467 212.884 63.784V61.496C211.284 61.5493 210.249 61.656 209.78 61.816C209.417 61.912 209.161 62.088 209.012 62.344C208.863 62.5893 208.788 62.7867 208.788 62.936C208.788 63.0853 208.788 63.1867 208.788 63.24C208.82 63.624 208.985 63.9013 209.284 64.072C209.583 64.2427 209.945 64.328 210.372 64.328ZM212.388 53L213.348 53.112L211.444 55.48L210.724 55.352L212.388 53ZM217.896 64.2H219.224V65H215.864V64.2H216.856V57.8H215.784V57H217.896V58.936C218.739 57.6987 219.565 57.0693 220.376 57.048C220.44 57.048 220.504 57.048 220.568 57.048L221.464 57.16L221.048 58.12C220.845 58.024 220.584 57.976 220.264 57.976C219.496 57.9867 218.707 58.5413 217.896 59.64V64.2ZM222.257 57.8V57H224.369V64.2H225.569V65H222.337V64.2H223.329V57.8H222.257ZM223.825 54.856C223.611 54.856 223.446 54.792 223.329 54.664C223.211 54.5253 223.153 54.3493 223.153 54.136C223.153 53.912 223.211 53.736 223.329 53.608C223.457 53.4693 223.627 53.4 223.841 53.4C224.054 53.4 224.225 53.4693 224.353 53.608C224.491 53.736 224.561 53.9173 224.561 54.152C224.561 54.376 224.491 54.552 224.353 54.68C224.214 54.7973 224.038 54.856 223.825 54.856ZM228.646 65.064C227.228 65.064 226.476 64.504 226.39 63.384C226.38 63.3093 226.374 63.2347 226.374 63.16C226.374 62.264 226.913 61.6667 227.99 61.368C228.588 61.2187 229.74 61.048 231.446 60.856V59.624C231.446 58.4613 230.838 57.88 229.622 57.88C228.748 57.8907 227.82 58.0933 226.838 58.488L226.566 57.8L226.726 57.736C227.558 57.3733 228.193 57.1547 228.63 57.08C229.068 57.0053 229.388 56.968 229.59 56.968C229.793 56.9573 229.985 56.9573 230.166 56.968C230.358 56.9787 230.604 57.0267 230.902 57.112C231.201 57.1973 231.457 57.32 231.67 57.48C231.894 57.6293 232.086 57.8587 232.246 58.168C232.406 58.4773 232.486 58.8453 232.486 59.272V64.2H233.718V65H231.606L231.446 64.392C230.486 64.84 229.553 65.064 228.646 65.064ZM228.934 64.328C229.745 64.328 230.582 64.1467 231.446 63.784V61.496C229.846 61.5493 228.812 61.656 228.342 61.816C227.98 61.912 227.724 62.088 227.574 62.344C227.425 62.5893 227.35 62.7867 227.35 62.936C227.35 63.0853 227.35 63.1867 227.35 63.24C227.382 63.624 227.548 63.9013 227.846 64.072C228.145 64.2427 228.508 64.328 228.934 64.328Z" fill="#22212B"/>
<path d="M6.82596 70.0335C7.62463 73.8662 12.1771 69.1551 12.1771 69.1551L17.6081 68.5163C17.6081 68.5163 21.0424 68.5962 23.2786 70.3529C25.5149 72.1095 27.0324 69.7939 27.0324 69.7939C29.5519 70.6335 32.6386 70.6301 35.3119 70.3612C39.164 69.9738 42.2517 67.0011 42.7812 63.1668C45.7677 41.5369 29.3486 30.9073 29.3486 30.9073L24.5565 17.9717C24.5565 17.9717 26.074 14.2188 26.5532 10.8651C27.0324 7.51141 23.5182 4.31743 19.2054 1.12346C17.3185 -0.273908 15.1565 -0.173472 13.3212 0.381652C11.2624 1.00439 9.46648 2.28499 8.13947 3.97745C7.04009 5.3796 5.15445 7.36541 3.08176 7.70943C2.36456 7.82761 1.65693 8.11187 0.995629 8.6293C0.311959 9.16428 0.0100684 10.057 0.000484342 11.1669C-0.0506324 16.0154 3.95392 21.8523 7.46489 22.7626C11.7777 23.8805 9.46157 34.5005 9.46157 34.5005C2.43324 44.4018 7.38502 55.421 7.38502 55.421L6.10714 64.3642C6.10714 64.3642 6.02727 66.2007 6.82595 70.0335L6.82596 70.0335V70.0335Z" fill="#3F3D56"/>
<path d="M30.307 49.4323L28.5499 71.3111C28.5499 71.3111 30.9459 77.3796 22.7995 77.0602C14.653 76.7408 19.445 64.2843 19.445 64.2843L22.0008 47.9951" fill="#3F3D56"/>
<path d="M23.4056 77.2321C23.2064 77.2321 23.0025 77.228 22.7932 77.2197C20.9898 77.1491 19.6618 76.485 18.846 75.2461C16.5135 71.7037 19.1077 64.721 19.2898 64.243L21.8429 47.9702C21.8566 47.883 21.9377 47.8244 22.0256 47.8372C22.1126 47.8509 22.1722 47.9326 22.1586 48.0198L19.6029 64.3091C19.601 64.3202 19.5982 64.3311 19.5941 64.3417C19.5662 64.4139 16.8384 71.6169 19.113 75.0708C19.869 76.2185 21.1113 76.8342 22.8057 76.9007C25.4656 77.0044 27.2547 76.437 28.1245 75.2129C29.2624 73.6114 28.41 71.3918 28.4012 71.3695C28.3923 71.3469 28.3887 71.3224 28.3906 71.2983L30.1477 49.4195C30.1547 49.3317 30.2302 49.2676 30.3198 49.2731C30.4077 49.2803 30.4732 49.3571 30.4662 49.4451L28.712 71.288C28.828 71.6011 29.5557 73.748 28.3862 75.396C27.521 76.6154 25.8467 77.2321 23.4056 77.2321V77.2321Z" fill="#2F2E41"/>
<path d="M15.7711 53.9039C15.7711 53.9039 16.2503 74.1856 6.18705 73.7065C-3.87624 73.2274 5.22864 66.8395 5.22864 66.8395L6.10718 64.3641" fill="#3F3D56"/>
<path d="M6.53238 73.8745C6.41554 73.8745 6.29808 73.8717 6.17937 73.8661C3.30602 73.7293 1.68254 73.0857 1.3541 71.9531C0.762426 69.9123 4.61899 67.0789 5.09492 66.7384L5.95661 64.3108C5.9861 64.2276 6.07735 64.1842 6.16049 64.2137C6.24364 64.2431 6.28716 64.3344 6.25768 64.4175L5.37914 66.8928C5.36806 66.9242 5.34747 66.9512 5.32033 66.9702C5.27821 66.9998 1.10693 69.9541 1.66101 71.8642C1.94733 72.8513 3.47261 73.4174 6.19466 73.547C8.00743 73.6342 9.59651 73.0247 10.9149 71.7378C15.8591 66.9123 15.6145 54.0371 15.6114 53.9076C15.6093 53.8195 15.6791 53.7464 15.7674 53.7442C15.8508 53.7444 15.9287 53.812 15.9308 53.9002C15.9435 54.4345 16.182 67.043 11.1383 71.9661C9.84001 73.2334 8.2918 73.8745 6.53238 73.8745V73.8745Z" fill="#2F2E41"/>
<path d="M0.000488281 11.1669C1.14738 11.3042 2.9428 11.2978 4.42993 10.3061C6.02248 9.24411 4.36923 8.25398 3.08177 7.70941C2.36456 7.82759 1.65694 8.11186 0.995633 8.62928C0.311963 9.16427 0.0100724 10.057 0.000488281 11.1669Z" fill="#2F2E41"/>
<path d="M18.5343 8.2954C18.5343 8.2954 15.7469 1.13827 19.7391 1.03813C23.7312 0.937978 26.8844 7.14021 26.8844 7.14021C26.8844 7.14021 36.9042 25.4006 23.1764 24.4158C9.44848 23.4311 16.0085 16.1417 16.0085 16.1417C16.0085 16.1417 19.1395 12.2931 18.5343 8.2954H18.5343V8.2954V8.29539V8.2954Z" fill="#2F2E41"/>
<path d="M33.8273 61.7796C35.5952 62.5659 37.4424 63.3682 39.3758 63.2915C41.3092 63.2147 43.3439 61.9699 43.6451 60.059C43.8007 59.0725 43.4922 58.0142 43.87 57.0897C44.3783 55.8459 46.0179 55.3662 47.2924 55.7925C48.567 56.2187 49.5033 57.3179 50.1746 58.4819C51.4307 60.6596 51.934 63.5179 50.5872 65.6408C49.4198 67.4811 47.2055 68.3127 45.1458 69.026C42.4023 69.9761 39.3393 70.9191 36.6809 69.752C34.0072 68.5783 32.5508 65.1872 33.5409 62.4407" fill="#3F3D56"/>
<path d="M27.9292 27.2959C27.9292 27.2959 31.4434 29.0526 29.6863 30.969C27.9292 32.8854 17.0672 38.3151 13.0738 37.5166C9.08048 36.7181 8.12207 34.3227 8.12207 33.6839C8.12207 33.0451 8.4233 25.3178 9.70118 25.6372C10.9791 25.9566 18.984 33.2048 27.9292 27.2959Z" fill="#00BFA6"/>
<path d="M48.9732 70.7851L76.4804 70.0026C76.4804 70.0026 74.41 57.5933 81.0528 54.1488C85.5806 51.8002 89.6 40.8273 88.4563 33.3625C88.4414 33.2625 88.4252 33.1639 88.4077 33.0666C87.8277 29.7234 86.1714 27.1356 83.0058 26.4329C72.7685 24.1626 65.4621 25.9234 65.4621 25.9234C65.4621 25.9234 63.7707 25.9451 61.2647 26.4166C61.1757 26.4329 61.0866 26.4504 60.9963 26.4694C53.9017 27.8626 40.7888 32.822 40.2209 50.4299C39.44 74.6215 48.9732 70.7851 48.9732 70.7851V70.7851Z" fill="#3F3D56"/>
<path d="M61.2647 26.4166C61.3106 27.6788 61.5966 28.9328 62.1185 30.1261C63.2002 32.5977 65.1708 34.4855 67.6674 35.4422C75.1438 38.3098 83.8704 35.4652 88.2836 32.3814C88.3012 32.4787 88.6518 34.3265 88.6667 34.4265C86.7123 35.7657 77.1494 37.0584 75.3353 37.0584C72.5811 37.0584 69.9293 36.6003 67.5703 35.6949C65.0063 34.7111 62.9831 32.772 61.8717 30.2341C61.3416 29.0234 61.0489 27.7504 60.9963 26.4693C61.0867 26.4504 61.1757 26.4329 61.2647 26.4166H61.2647V26.4166Z" fill="#00BFA6"/>
<path d="M59.2306 28.0237L63.6154 16.9782C63.6154 16.9782 58.3537 7.94106 62.4879 6.93692C66.6222 5.93279 70.8817 11.33 70.8817 11.33C70.8817 11.33 78.7743 8.56864 81.781 10.8279C81.781 10.8279 86.7922 3.79901 89.7989 5.17969C92.8056 6.56037 88.7306 16.5118 88.7306 16.5118C88.7306 16.5118 94.9354 25.6389 90.1748 30.9106C85.4141 36.1823 67.4991 40.4498 59.2307 28.0237H59.2306V28.0237Z" fill="#3F3D56"/>
<path d="M49.8268 64.174C48.334 64.8393 46.7743 65.5183 45.1417 65.4534C43.5091 65.3884 41.7911 64.335 41.5367 62.7181C41.4054 61.8833 41.6658 60.9878 41.3468 60.2056C40.9176 59.153 39.5332 58.7471 38.457 59.1078C37.3808 59.4685 36.5901 60.3986 36.0233 61.3836C34.9627 63.2263 34.5377 65.6449 35.6749 67.4413C36.6607 68.9985 38.5304 69.7022 40.2695 70.3058C42.5861 71.1097 45.1725 71.9077 47.4173 70.9201C49.6749 69.9269 50.9047 67.0574 50.0687 64.7334" fill="#3F3D56"/>
<path d="M74.526 23.0572C74.526 23.0572 77.2236 21.9762 78.977 23.3275L76.9538 26.4356C76.9538 26.4356 74.526 23.0572 74.526 23.0572V23.0572Z" fill="#00BFA6"/>
<path d="M88.6883 37.2462L83.6978 63.8675C83.6978 63.8675 91.251 71.5701 81.5397 71.435C71.8285 71.2999 74.6609 66.2999 74.6609 66.2999L77.7631 43.1921" fill="#3F3D56"/>
<path d="M81.7848 71.6316C84.4146 71.6316 86.0054 71.0276 86.5145 69.8348C87.4419 67.6619 84.4232 64.3483 83.9057 63.8032L87.2614 43.9003L86.8781 43.8354L83.4896 63.9331L83.5591 64.0041C83.594 64.0397 87.0468 67.5976 86.1569 69.6818C85.7 70.7523 84.1504 71.2778 81.5423 71.2403C77.9172 71.1899 75.5794 70.4288 74.7818 69.0395C74.0636 67.7883 74.8224 66.4097 74.8302 66.3959L74.8485 66.3633L74.8536 66.326L77.0117 50.2451L76.6263 50.1932L74.473 66.2387C74.3453 66.4817 73.6741 67.8861 74.4427 69.2299C75.323 70.7691 77.7099 71.5766 81.537 71.6299C81.6206 71.631 81.7032 71.6316 81.7848 71.6316V71.6316Z" fill="#2F2E41"/>
<path d="M76.0097 37.2462L71.0192 63.8675C71.0192 63.8675 78.5724 71.5701 68.8611 71.435C59.1499 71.2999 61.9823 66.2999 61.9823 66.2999L65.0845 43.1921" fill="#3F3D56"/>
<path d="M69.1063 71.6316C71.7361 71.6316 73.3268 71.0276 73.8359 69.8347C74.7624 67.664 71.7506 64.3547 71.2288 63.8048L73.2335 53.0928L72.8513 53.0211L70.8094 63.9316L70.8805 64.004C70.9155 64.0397 74.3682 67.5975 73.4783 69.6818C73.0212 70.7522 71.4708 71.2798 68.8638 71.2403C65.2356 71.1898 62.8972 70.4276 62.1013 69.0361C61.3835 67.7809 62.1436 66.4099 62.1513 66.3962L62.17 66.3634L65.2772 43.2182L64.8918 43.1663L61.7943 66.2387C61.6666 66.4817 60.9955 67.8861 61.764 69.2299C62.6444 70.7691 65.0313 71.5766 68.8585 71.6299C68.942 71.631 69.0246 71.6316 69.1063 71.6316H69.1063Z" fill="#2F2E41"/>
</svg>
